<svg width="6" height="13" viewBox="0 0 6 13" fill="none" xmlns="http://www.w3.org/2000/svg">
<path d="M3.00309 4.278C2.40176 4.278 1.89576 4.07267 1.48509 3.662C1.07443 3.25133 0.869094 2.738 0.869094 2.122C0.869094 1.49133 1.07443 0.985333 1.48509 0.604C1.89576 0.208 2.40176 0.00999963 3.00309 0.00999963C3.60443 0.00999963 4.11043 0.208 4.52109 0.604C4.93176 0.985333 5.13709 1.49133 5.13709 2.122C5.13709 2.738 4.93176 3.25133 4.52109 3.662C4.11043 4.07267 3.60443 4.278 3.00309 4.278ZM3.00309 12.176C2.40176 12.176 1.89576 11.9707 1.48509 11.56C1.07443 11.1493 0.869094 10.636 0.869094 10.02C0.869094 9.38933 1.07443 8.88333 1.48509 8.502C1.89576 8.106 2.40176 7.908 3.00309 7.908C3.60443 7.908 4.11043 8.106 4.52109 8.502C4.93176 8.88333 5.13709 9.38933 5.13709 10.02C5.13709 10.636 4.93176 11.1493 4.52109 11.56C4.11043 11.9707 3.60443 12.176 3.00309 12.176Z" fill="#1A263D"/>
</svg>
