<svg width="70" height="70" viewBox="0 0 70 70" fill="none" xmlns="http://www.w3.org/2000/svg">
<g clip-path="url(#clip0_23_66)">
<path d="M30.3401 64.1576C30.3401 64.8016 29.8179 65.3238 29.1739 65.3238C28.5294 65.3238 28.0072 64.8016 28.0072 64.1576C28.0072 63.5131 28.5294 62.9909 29.1739 62.9909C29.8179 62.9909 30.3401 63.5131 30.3401 64.1576V64.1576Z" fill="white"/>
<path d="M49.0038 50.1597C49.0038 50.8042 48.4816 51.3264 47.8371 51.3264C47.1931 51.3264 46.6709 50.8042 46.6709 50.1597C46.6709 49.5158 47.1931 48.9935 47.8371 48.9935C48.4816 48.9935 49.0038 49.5158 49.0038 50.1597V50.1597Z" fill="white"/>
<path d="M64.8984 44.7181C65.5904 43.1301 65.9588 41.4198 65.9823 39.6876C65.9765 39.16 65.6176 38.7019 65.1061 38.5705C64.9 38.5176 59.9987 37.2954 56.8296 39.7799C56.2647 40.229 55.7766 40.7662 55.3831 41.3706C54.9137 40.0891 54.258 38.8845 53.4363 37.7952C53.1864 37.462 52.7773 37.2874 52.3635 37.337C51.9497 37.3867 51.5941 37.6537 51.4301 38.0371C51.2668 38.4199 51.3196 38.8615 51.57 39.1953C52.9717 41.0209 53.7711 43.2379 53.856 45.5382C53.8202 45.7598 53.7892 45.9713 53.7668 46.1662C53.6803 46.1085 53.5954 46.053 53.5025 45.991C52.1302 44.9284 50.4476 44.3443 48.7123 44.3272C48.3454 44.3288 47.9791 44.3486 47.6144 44.3875C48.1035 41.8122 47.7282 39.1472 46.5476 36.8068C45.3371 33.9779 44.9286 30.8696 45.3686 27.8239C46.8311 27.3759 47.8317 26.0276 47.8371 24.4973C47.835 23.0177 46.8994 21.6998 45.5026 21.2107C45.5042 20.8455 45.5042 20.5027 45.5042 20.4151C45.328 8.98664 35.9366 -0.143652 24.5076 0.00158694C13.0791 -0.143652 3.68768 8.98664 3.51147 20.4151C3.51147 20.5027 3.51147 20.8439 3.51308 21.2081C3.02503 21.3736 2.58237 21.6502 2.21981 22.016C1.54915 22.6669 1.1727 23.5629 1.17858 24.4973C1.18392 26.0276 2.18457 27.3759 3.6471 27.8239C4.08656 30.8696 3.67861 33.9779 2.4681 36.8068C0.283114 40.8682 0.866205 45.8618 3.92904 49.3096C1.40231 52.0985 0.00598564 55.7285 0.0118593 59.4913V66.4905C0.0139951 68.4219 1.57958 69.9875 3.51147 69.9896H45.5042C46.3046 69.9838 47.0778 69.6991 47.6908 69.1849C48.5094 69.6751 49.4385 69.9517 50.3916 69.9896C51.8077 70.0665 53.2131 69.7109 54.422 68.9703C55.0013 68.4951 55.8359 68.4951 56.4153 68.9703C57.6247 69.7109 59.0306 70.0665 60.4467 69.9896C64.3425 69.9896 69.9999 64.1918 69.9999 55.1058C69.9999 49.2135 68.3248 45.7972 64.8984 44.7181V44.7181ZM58.2692 41.6163C59.8503 40.3759 62.2702 40.4848 63.5891 40.6615C63.4465 41.9852 62.9729 44.3582 61.3902 45.5986H61.3892C59.8326 46.564 57.9696 46.9089 56.1702 46.5656C56.183 46.3301 56.1883 46.0679 56.1862 45.7897C56.3651 44.1964 57.103 42.7173 58.2692 41.6163ZM44.9969 45.1239C44.0545 45.6007 43.2509 46.3125 42.664 47.1909C41.3665 46.2575 39.929 45.5361 38.4051 45.0539C38.2898 44.7624 38.0618 44.5301 37.7724 44.4105L32.8188 42.4306C31.7946 42.0237 30.6252 42.3862 30.0112 43.3009L29.1739 44.5568V40.2824C35.5356 38.9208 40.6606 34.2187 42.5626 27.9969H42.9978C42.5818 31.354 43.0875 34.7612 44.4619 37.8529C45.6195 40.1035 45.8128 42.728 44.9969 45.1239V45.1239ZM24.5076 51.5566L22.1747 48.057V40.6823C22.9489 40.7747 23.728 40.8233 24.5076 40.8281C25.2877 40.8233 26.0662 40.7747 26.841 40.6829V48.0564L24.5076 51.5566ZM28.0072 20.9982H36.1726V22.1644C36.1705 24.0963 34.6049 25.6619 32.673 25.664H31.5068C29.5749 25.6619 28.0093 24.0963 28.0072 22.1644V20.9982ZM37.5054 19.0887C37.115 18.8132 36.65 18.6653 36.1726 18.6653H28.0072C27.7023 18.6653 27.4006 18.7257 27.1192 18.8431C25.5344 17.8323 23.5064 17.8371 21.9258 18.8549C21.6364 18.7294 21.3241 18.6653 21.0085 18.6653H12.8431C12.3657 18.6653 11.9001 18.8132 11.5103 19.0887L8.64396 20.1748C8.65784 20.1204 8.66852 20.0675 8.68294 20.013C8.69095 19.9842 8.69789 19.9543 8.70376 19.9249V19.9239L8.70483 19.9228L8.7059 19.9127L9.19021 17.2743C15.7286 15.4952 18.7317 12.3533 20.0388 10.3461C22.2275 12.7853 27.595 17.0602 37.9838 16.3746C38.9492 17.5253 39.7518 18.8036 40.369 20.1738L37.5054 19.0887ZM12.8431 20.9982H21.0085V22.1644C21.0063 24.0963 19.4408 25.6619 17.5089 25.664H16.3427C14.4108 25.6619 12.8452 24.0963 12.8431 22.1644V20.9982ZM8.26378 25.2027C8.20824 24.6933 8.17887 24.1817 8.17727 23.6691C8.17727 23.3749 8.18795 23.1031 8.20557 22.8367L10.5102 21.9636V22.1644C10.5139 25.3842 13.1229 27.9932 16.3427 27.9969H17.5089C20.7287 27.9932 23.3376 25.3842 23.3414 22.1644V20.9982C23.3376 20.9117 23.3286 20.8252 23.3152 20.7398C24.0521 20.3153 24.9566 20.3041 25.7031 20.7115C25.6876 20.8065 25.678 20.9021 25.6743 20.9982V22.1644C25.678 25.3842 28.287 27.9932 31.5068 27.9969H32.673C35.8928 27.9932 38.5018 25.3842 38.5055 22.1644V21.9636L40.8106 22.8367C40.8272 23.0978 40.8384 23.3701 40.8384 23.6691C40.8368 24.178 40.808 24.6858 40.753 25.1914C40.6996 25.656 40.6232 26.1206 40.5276 26.5696C39.0048 32.652 33.9897 37.2329 27.7941 38.1999C25.6209 38.5919 23.3948 38.5919 21.2215 38.1999C15.0072 37.2383 9.98315 32.6307 8.48804 26.5226C8.39139 26.081 8.31664 25.6405 8.26378 25.2027ZM23.0648 53.5963L19.9934 57.4355L13.3658 46.0749L17.0635 44.5953L23.0648 53.5963ZM31.9521 44.5963L35.6498 46.0749L29.0223 57.4355L25.9509 53.5963L31.9521 44.5963ZM44.338 25.664H43.0357C43.0453 25.5909 43.0624 25.522 43.0709 25.4488C43.1355 24.8577 43.1692 24.2639 43.1713 23.6691C43.1713 23.5495 43.1649 23.4454 43.1627 23.3311H44.338C44.6525 23.3306 44.9531 23.4598 45.1694 23.6889C45.3862 23.9014 45.5069 24.1935 45.5042 24.4973C45.5037 25.1418 44.982 25.6635 44.338 25.664V25.664ZM24.5076 2.33449C34.6487 2.18765 42.9961 10.2746 43.1713 20.4151V20.9982H42.9433C42.9251 20.8871 42.9102 20.7857 42.8904 20.6666C42.8151 20.3046 42.7286 19.942 42.6181 19.5426C41.8102 17.6812 40.7252 15.9533 39.3999 14.4176C39.1591 14.1223 38.7874 13.9675 38.4083 14.0038C25.3801 15.0749 21.0309 7.89147 20.8542 7.58818C20.6235 7.18397 20.1734 6.95757 19.7115 7.0131C19.2485 7.0665 18.8609 7.38901 18.7236 7.83434C18.6585 8.04152 17.0491 12.9433 7.89747 15.1999C7.45215 15.3099 7.11254 15.6703 7.02924 16.1215L6.41892 19.4492C6.31159 19.8545 6.20587 20.2613 6.10762 20.759C6.09427 20.8396 6.08306 20.9181 6.07024 20.9982H5.84437C5.84437 20.7222 5.84437 20.4851 5.84437 20.4151C6.01951 10.2746 14.367 2.18765 24.5076 2.33449V2.33449ZM3.86923 23.6659C4.08549 23.447 4.38184 23.3258 4.6894 23.3311H5.85345C5.85132 23.4448 5.84437 23.5506 5.84437 23.6691C5.84651 24.2688 5.88068 24.8679 5.94583 25.4632C5.95384 25.5316 5.97092 25.5962 5.98 25.664H4.67766C4.03369 25.6635 3.51201 25.1418 3.51147 24.4973C3.51094 24.1828 3.64016 23.8822 3.86923 23.6659ZM4.55484 37.8502C5.92821 34.7596 6.43441 31.3534 6.01791 27.9969H6.46057C8.35241 34.2224 13.478 38.9283 19.8418 40.2824V44.5568L19.0045 43.3009C18.3899 42.3873 17.2221 42.0247 16.198 42.4295L11.2438 44.4105C10.964 44.528 10.7414 44.7506 10.625 45.0304C8.81056 45.598 7.11948 46.5031 5.6404 47.6971C3.24236 44.9701 2.80877 41.0342 4.55484 37.8502V37.8502ZM2.34476 66.4905V59.4913C2.33248 53.8761 5.98588 48.9097 11.3501 47.2485L18.8342 60.0797C19.028 60.4124 19.3735 60.6276 19.7569 60.6554C19.7852 60.657 19.8135 60.658 19.8418 60.658C20.1963 60.658 20.5317 60.4973 20.7532 60.2207L23.3414 56.9854V67.6567H3.51147C2.86751 67.6562 2.34529 67.1345 2.34476 66.4905ZM25.6743 67.6567V56.9854L28.2624 60.2207C28.484 60.4973 28.8193 60.658 29.1739 60.658C29.2022 60.658 29.2305 60.657 29.2588 60.6548C29.6427 60.6271 29.9882 60.4119 30.182 60.0792L37.6597 47.2603C39.0918 47.7115 40.4326 48.411 41.6217 49.3273C41.0541 51.1993 40.7898 53.1499 40.8384 55.1058C40.6915 59.7562 42.4157 64.2714 45.6238 67.6407C45.5843 67.6482 45.5442 67.6535 45.5042 67.6567H25.6743ZM60.4467 67.6567C59.4428 67.7293 58.4422 67.4827 57.5873 66.9519C56.2807 66.057 54.5587 66.057 53.252 66.9519C52.3966 67.4827 51.3954 67.7299 50.3916 67.6567C49.5719 67.5927 48.7908 67.2803 48.1527 66.7613C48.1313 66.7463 48.1196 66.7239 48.0977 66.71L48.0795 66.7036C45.721 64.9517 43.1713 60.8561 43.1713 55.1058C43.1713 49.8917 44.4881 47.8402 46.2678 47.0787L46.2742 47.0761C47.0506 46.7749 47.8798 46.6334 48.7123 46.6606C49.9826 46.682 51.2096 47.1273 52.1991 47.9251C52.9461 48.5455 53.8677 48.9188 54.8358 48.9935H54.8385C55.1353 48.9866 55.4296 48.9417 55.7152 48.86C56.3362 48.9471 56.9631 48.9914 57.5905 48.9925C59.4605 49.0667 61.3027 48.5188 62.8293 47.4354C63.084 47.232 63.3221 47.0088 63.5421 46.7685C65.1125 47.0077 67.667 48.0719 67.667 55.1058C67.667 62.8916 62.9921 67.6567 60.4467 67.6567V67.6567Z" fill="white"/>
<path d="M47.837 54.8255C47.837 54.1816 47.3148 53.6594 46.6709 53.6594C46.0264 53.6594 45.5042 54.1816 45.5042 54.8255C45.5042 55.0274 45.5191 59.7957 46.7937 62.3465C46.98 62.7192 47.3511 62.9643 47.7671 62.9888C48.1831 63.0139 48.5809 62.8153 48.8105 62.4671C49.0401 62.1195 49.0668 61.6753 48.8804 61.3026C48.1564 59.2217 47.8034 57.0292 47.837 54.8255V54.8255Z" fill="white"/>
</g>
<defs>
<clipPath id="clip0_23_66">
<rect width="70" height="70" fill="white"/>
</clipPath>
</defs>
</svg>
